<svg width="24" height="24" viewBox="0 0 24 24" fill="none" xmlns="http://www.w3.org/2000/svg">
<path d="M24 14.3192V23.3514H18.8341V14.87C18.8341 12.7772 18.0807 11.3452 16.2511 11.3452C14.852 11.3452 13.991 12.3366 13.6682 13.2177C13.5605 13.5482 13.4529 13.9888 13.4529 14.5395V23.3514H8.28699C8.28699 23.3514 8.39462 9.03213 8.28699 7.60021H13.4529V9.80316C14.0987 8.70168 15.3901 7.15961 18.0807 7.15961C21.417 7.15961 24 9.47272 24 14.3192ZM2.90583 0C1.18385 0 0 1.21163 0 2.7537C0 4.29577 1.07623 5.50739 2.79821 5.50739C4.6278 5.50739 5.70404 4.29577 5.70404 2.7537C5.81166 1.10148 4.73542 0 2.90583 0ZM0.322869 23.3514H5.48879V7.60021H0.322869V23.3514Z" fill="#221E26"/>
</svg>
