<svg width="144" height="44" viewBox="0 0 144 44" fill="none" xmlns="http://www.w3.org/2000/svg">
<path d="M26.3893 20.421L27.9399 14.9793H35.1662C38.9696 14.9793 41.2808 13.2532 42.3341 9.59615L42.9192 7.57746C44.265 2.92568 42.0708 0.0292969 37.2727 0.0292969H5.85129L0 20.421H26.3893ZM37.2434 5.50025L36.0147 9.94723H29.4027L30.6607 5.52951H37.2434V5.50025Z" fill="#FF5252"/>
<path d="M45.6097 20.421L47.5406 16.998H56.4931V20.421H62.3737V0H50.8174L38.793 20.421H45.6097ZM54.0648 5.55872H56.4931V12.0537H50.3493L54.0648 5.55872Z" fill="#FF5252"/>
<path d="M86.362 9.39131L86.8886 7.54816C88.2344 2.83787 86.0402 0 81.2421 0H70.0661L64.2148 20.421H70.3294L71.9385 14.8038H75.7419L77.468 20.421H83.7582L81.915 14.4234C84.1385 13.7505 85.6013 12.0829 86.362 9.39131ZM74.6009 5.50021H81.1836L79.9548 9.91793H73.3429L74.6009 5.50021Z" fill="#FF5252"/>
<path d="M92.099 20.421L97.9503 0H91.8064L85.9844 20.421H92.099Z" fill="#FF5252"/>
<path d="M54.6235 23.3184L47.719 31.4809L44.8811 23.3184H18.4041L12.582 43.7686H38.9713L42.1896 32.4756L44.3253 38.795H48.2749L53.9799 32.066L50.6154 43.7686H56.73L62.552 23.3184H54.6235Z" fill="#FF5252"/>
<path d="M70.7451 23.3184L58.6914 43.7394H65.5082L67.4391 40.3163H76.3916V43.7394H82.2721V23.3476L70.7451 23.3184ZM70.277 35.4013L73.9633 28.9063H76.3916V35.4013H70.277Z" fill="#FF5252"/>
<path d="M102.953 29.1696L104.62 23.3184H86.0426L84.375 29.1696H91.104L86.9203 43.7686H93.0349L97.2186 29.1696H102.953Z" fill="#FF5252"/>
<path d="M111.117 29.1697H120.391L122.088 23.3477H112.199C108.396 23.3477 106.085 25.0738 105.031 28.7308L102.866 36.1912C101.491 40.96 103.715 43.7394 108.513 43.7394H116.207L117.875 37.9174H108.601L111.117 29.1697Z" fill="#FF5252"/>
<path d="M137.884 23.3184L135.777 30.6325H128.785L130.862 23.3184H124.748L118.926 43.7686H125.04L127.118 36.4545H134.11L132.033 43.7686H138.177L143.999 23.3184H137.884Z" fill="#FF5252"/>
</svg>
