<svg width="117" height="58" viewBox="0 0 117 58" fill="none" xmlns="http://www.w3.org/2000/svg">
<path d="M36.8276 14.8958C39.2048 13.255 40.4527 10.3167 40.384 7.46621C40.2461 3.20706 36.6815 -0.133804 32.4225 0.00412149L32.3706 0.00595949C20.8999 0.406659 10.5549 4.83316 3.98776 10.0151C2.88108 12.4154 2.3774 14.8423 2.89641 16.7426C21.5182 6.95476 33.916 4.96679 36.8276 14.8958ZM66.9048 16.0664H65.4471C64.8608 16.0687 64.3114 16.3527 63.9703 16.8296C60.0246 22.2559 55.5753 28.2775 52.5797 30.838C52.2544 31.1061 51.7734 31.0595 51.5053 30.7342C51.3022 30.4878 51.2742 30.141 51.4348 29.8649L57.3763 19.2224C57.8695 18.3754 57.456 17.2499 56.4327 16.9716C56.3538 16.9502 56.272 16.9402 56.1905 16.9334L53.7244 16.7305C53.0969 16.6829 52.5043 17.0254 52.2323 17.593C51.0303 21.6875 48.8668 26.0263 46.0696 30.5251C45.4364 31.8137 45.3005 33.2906 45.6881 34.6731C47.2413 39.8399 54.5945 36.5087 60.9519 28.0296C54.3388 38.4051 47.1305 53.8291 39.4988 48.6852C39.7545 53.127 40.7886 56.6491 43.975 57.6373C52.0838 60.5946 64.9626 34.196 68.6792 18.3523C68.9195 17.3589 68.309 16.3586 67.3155 16.1183C67.181 16.0859 67.0431 16.0685 66.9048 16.0666V16.0664ZM41.6319 51.338C45.2227 51.6852 48.2715 49.8881 50.7902 45.9957L54.4953 48.1059C50.0917 55.3904 44.0778 60.2863 41.6319 51.338Z" fill="#FF5252"/>
<path d="M48.3972 23.8274C49.3092 22.2162 49.8392 20.4173 49.9465 18.5691C49.9731 18.2309 49.7205 17.935 49.3823 17.9082C49.2301 17.8962 49.0789 17.9413 48.9581 18.0347L43.6158 22.1559L43.4021 18.8743C43.3295 17.6465 42.3158 16.6861 41.0857 16.6802H39.0328C38.3795 16.6814 37.8507 17.2119 37.8519 17.8651C37.8519 17.9622 37.8642 18.0588 37.8881 18.153C38.7506 21.6179 39.4564 24.8577 39.3495 26.9067C37.9414 27.7768 35.9153 27.3532 33.6257 26.2886C35.7015 14.4593 28.0545 11.6049 22.0481 19.3666L14.9734 18.8972L18.4077 13.3526C11.768 11.3644 6.07079 19.0231 0.354532 35.9925C-0.173468 37.6995 -0.110124 39.5346 0.533938 41.2011C1.67862 44.0134 4.05605 45.0171 7.04383 45.1393C6.28064 38.0989 8.51688 31.6346 11.436 25.2964L18.9153 23.9036C10.3103 40.2473 25.5855 47.3487 32.9083 28.1317C34.3272 28.7625 35.866 29.0778 37.4188 29.0551L29.0694 39.4038C28.7276 39.8268 28.7934 40.4465 29.2162 40.7884C29.3663 40.9098 29.5488 40.9843 29.7409 41.0027L33.076 41.289C34.2943 41.3904 35.443 40.7087 35.9379 39.591L39.6166 31.36L39.4372 37.8776C39.3779 39.1408 40.3536 40.2128 41.6168 40.2722C41.8878 40.2849 42.1589 40.2494 42.4174 40.1672L46.9279 38.763C44.0316 37.084 43.0776 32.7111 43.1538 26.8994L48.3968 23.8276L48.3972 23.8274ZM23.5555 34.1633C22.6785 34.1492 21.9398 33.5039 21.8078 32.6369C21.4263 30.3778 22.4337 27.6762 23.8683 24.8601L30.0157 27.2222C28.4665 30.8512 26.8064 34.2282 23.5553 34.1635L23.5555 34.1633ZM30.6226 24.261L26.551 21.4639C28.6079 19.9757 31.5728 20.7693 30.6226 24.261Z" fill="#FF5252"/>
<path d="M88.8604 42.2206H86.3855L85.9582 37.7252H82.9369L82.5136 42.2206H80.2563L82.7618 17.4961H86.3587L88.8604 42.2206ZM83.2629 34.2515H85.6135L84.4382 21.846L83.2629 34.2515ZM94.9156 34.9048L96.516 17.4961H100.185V42.0162H97.9376V24.4322L96.2818 42.0162H93.7587L92.0121 24.676V42.0162H89.9687V17.4961H93.2242L94.9161 34.9048H94.9156ZM104.457 27.9171H107.745V31.3908H104.272V38.5425H108.563V42.0162H102.024V17.4961H108.767V21.1741H104.476L104.457 27.9171ZM113.379 17.3373C115.734 17.3373 116.941 19.5697 116.941 23.4798V24.2391H114.693V23.2369C114.693 21.4906 114.251 20.8261 113.483 20.8261C112.716 20.8261 112.273 21.4904 112.273 23.2369C112.273 28.2594 116.999 29.201 116.999 36.1788C116.999 40.0891 115.771 42.3213 113.396 42.3213C111.022 42.3213 109.789 40.0889 109.789 36.1788V34.6602H112.037V36.4064C112.037 38.149 112.521 38.7792 113.292 38.7792C114.063 38.7792 114.544 38.149 114.544 36.4064C114.544 31.38 109.817 30.4384 109.817 23.4608C109.817 19.5695 111.027 17.3373 113.379 17.3373H113.379ZM79.7518 25.4498V23.0419C79.7518 19.0772 78.4579 16.8105 75.9698 16.8105C73.4816 16.8105 72.1914 19.0772 72.1914 23.0419V35.8492C72.1914 39.8468 73.4881 42.1323 75.989 42.1323C76.6804 42.1443 77.3568 41.9279 77.9128 41.5166V42.016H79.7518V28.1213H76.2781V31.595H77.2998V36.1584C77.2998 37.9191 76.7887 38.5542 75.9716 38.5542C75.1545 38.5542 74.6434 37.9191 74.6434 36.1584V22.8031C74.6434 21.0386 75.1545 20.3692 75.9716 20.3692C76.7887 20.3692 77.2998 21.0384 77.2998 22.8031V25.4649L79.7518 25.4498Z" fill="#FF5252"/>
</svg>
