<svg width="205" height="32" viewBox="0 0 205 32" fill="none" xmlns="http://www.w3.org/2000/svg">
<path fill-rule="evenodd" clip-rule="evenodd" d="M170.202 9.39355H158.64V13.755H170.171C172.464 13.755 174.323 15.6114 174.323 17.9014C174.323 20.1913 172.464 22.0477 170.171 22.0477H163.033V18.1181H158.641V31.9877H163.033V26.4171H170.219V26.4075C173.262 26.4047 176.072 24.7811 177.591 22.1483C179.11 19.5156 179.106 16.2736 177.583 13.6437C176.059 11.0138 173.246 9.3955 170.203 9.39835L170.202 9.39355Z" fill="#52006B"/>
<path fill-rule="evenodd" clip-rule="evenodd" d="M205 17.903C204.986 13.2643 201.26 9.48825 196.616 9.40559V9.396H184.906V13.7543H196.438C198.73 13.7543 200.589 15.6103 200.589 17.8998C200.589 20.1893 198.73 22.0453 196.438 22.0453H189.304V18.1173H184.913V31.987H189.304V26.4164H196.622V26.3988C201.264 26.3136 204.986 22.539 205 17.903Z" fill="#52006B"/>
<path fill-rule="evenodd" clip-rule="evenodd" d="M58.2204 26.442L56.4026 22.0805H52.3778L56.0198 14.4804L64.4074 31.987H69.2714L58.4462 9.40559V9.396H53.5758V9.40559L42.7666 31.987H47.629L50.2893 26.4372H58.2204V26.442Z" fill="#52006B"/>
<path fill-rule="evenodd" clip-rule="evenodd" d="M103.146 9.396H102.346V31.987H119.93L121.507 27.6271H106.736V22.8706H115.12V18.5139H106.736V13.7543H121.507V9.396H103.146Z" fill="#52006B"/>
<path fill-rule="evenodd" clip-rule="evenodd" d="M90.9671 31.987H96.3966L86.0406 19.3712L95.6887 9.78944H89.6955L79.6054 19.8142V9.396H75.2139V31.987H79.5958V25.7654L83.0457 22.3396L90.9671 31.987Z" fill="#52006B"/>
<path fill-rule="evenodd" clip-rule="evenodd" d="M141.891 9.396H137.023V9.40559L130.951 22.0821L126.207 31.987H131.069L133.73 26.4372H141.34L139.523 22.0757H135.818L139.46 14.4756L147.848 31.987H152.712L141.891 9.40559V9.396Z" fill="#52006B"/>
<path fill-rule="evenodd" clip-rule="evenodd" d="M28.0631 31.9584L28.0487 31.9904H32.8743L32.8599 31.9584L44.5163 6.02799L46.6561 7.01959L44.9087 0L38.3694 3.18113L40.5412 4.18713L30.4623 26.5494L22.8644 9.40104H18.0596L10.4712 26.5494L4.86564 13.8697H0L8.08005 31.968L8.06563 32H12.8912L12.8768 31.968L20.4748 14.8213L28.0631 31.9584Z" fill="#52006B"/>
</svg>
