<svg width="233" height="60" viewBox="0 0 233 60" fill="none" xmlns="http://www.w3.org/2000/svg">
<path d="M11.8379 55.5793L14.0421 50.2866H15.1986L11.9876 57.797C11.3073 59.3753 10.4773 59.9739 9.52494 59.9739C9.29364 59.9739 9.06234 59.9467 8.81743 59.8787V58.9399C9.00792 58.9943 9.1984 59.0215 9.38888 59.0215C10.1236 59.0215 10.6542 58.4909 11.076 57.4296L11.3209 56.831L8.21878 50.2866H9.37527L11.8379 55.5793ZM15.9946 53.552C15.9946 51.3206 17.709 50.1233 19.4777 50.1233C21.2601 50.1233 22.9608 51.3206 22.9608 53.552C22.9608 55.7833 21.2601 56.9807 19.4777 56.9807C17.709 56.9807 15.9946 55.7833 15.9946 53.552ZM21.8723 53.552C21.8723 52.0417 20.8111 51.1574 19.4777 51.1574C18.1443 51.1574 17.0831 52.0417 17.0831 53.552C17.0831 55.0622 18.1443 55.9466 19.4777 55.9466C20.8111 55.9466 21.8723 55.0622 21.8723 53.552ZM29.6787 50.2866H30.7672V56.8174H29.7875V55.8514C29.3522 56.4228 28.4814 56.9807 27.4337 56.9807C25.733 56.9807 24.7126 55.9058 24.7126 54.3139V50.2866H25.801V54.1778C25.801 55.4024 26.4133 55.9738 27.5562 55.9738C28.5222 55.9738 29.2433 55.3207 29.6787 54.6677V50.2866ZM34.0314 51.4431C34.5484 50.5859 35.7049 50.0553 36.8478 50.1505V51.239C35.5689 51.0893 34.5348 51.7016 34.1402 52.7492V56.8174H33.0518V50.2866H34.0314V51.4431ZM41.2122 53.552C41.2122 51.5927 42.6136 50.1233 44.4776 50.1233C45.7293 50.1233 46.5321 50.7084 47.1171 51.375V50.2866H48.0967V56.8174C48.0967 59.0623 46.3416 59.9739 44.532 59.9739C43.566 59.9739 42.6544 59.7562 41.8789 59.3617V58.3004C42.6544 58.7358 43.498 58.9671 44.396 58.9671C45.7838 58.9671 47.0219 58.4365 47.0083 56.8174V55.8106C46.5321 56.3956 45.7293 56.9807 44.4776 56.9807C42.6136 56.9807 41.2122 55.5112 41.2122 53.552ZM47.0083 52.7356C46.6409 51.8921 45.7702 51.1301 44.6 51.1301C43.3347 51.1301 42.3007 52.0553 42.3007 53.552C42.3007 55.0486 43.3347 55.9738 44.6 55.9738C45.7702 55.9738 46.6409 55.2663 47.0083 54.5044V52.7356ZM55.2683 50.2866H56.3568V56.8174H55.3771V55.8514C54.9418 56.4228 54.071 56.9807 53.0233 56.9807C51.3226 56.9807 50.3022 55.9058 50.3022 54.3139V50.2866H51.3906V54.1778C51.3906 55.4024 52.0029 55.9738 53.1458 55.9738C54.1118 55.9738 54.8329 55.3207 55.2683 54.6677V50.2866ZM59.7571 56.8174H58.6686V50.2866H59.7571V56.8174ZM59.9203 48.2049C59.9203 48.6675 59.5938 48.8988 59.2128 48.8988C58.8319 48.8988 58.5053 48.6675 58.5053 48.2049C58.5053 47.7559 58.8319 47.511 59.2128 47.511C59.5938 47.511 59.9203 47.7559 59.9203 48.2049ZM67.4229 47.2933H68.5114V56.8174H67.5317V55.7289C66.9467 56.3956 66.1439 56.9807 64.8922 56.9807C63.0282 56.9807 61.6268 55.5112 61.6268 53.552C61.6268 51.5927 63.0282 50.1233 64.8922 50.1233C66.1439 50.1233 66.9467 50.7084 67.4229 51.2662V47.2933ZM67.4229 52.7356C67.0555 51.8921 66.1848 51.1301 65.0147 51.1301C63.7493 51.1301 62.7153 52.0553 62.7153 53.552C62.7153 55.0486 63.7493 55.9738 65.0147 55.9738C66.1848 55.9738 67.0555 55.2119 67.4229 54.3683V52.7356ZM70.3494 53.552C70.3494 51.2662 72.0501 50.1233 73.6012 50.1233C76.1183 50.1233 77.0435 52.1778 76.6353 54.0282H71.4379C71.5739 55.4024 72.8121 55.9738 74.1318 55.9738C74.9346 55.9738 75.7237 55.7561 76.2816 55.4432V56.5044C75.6829 56.8174 74.8257 56.9807 73.9686 56.9807C72.0365 56.9807 70.3494 55.8786 70.3494 53.552ZM75.6693 53.0758C75.7645 52.3819 75.3292 51.1301 73.6692 51.1301C72.5536 51.1301 71.5195 51.7968 71.4379 53.0758H75.6693ZM82.3544 48.2593L83.4293 47.9872V50.2866H86.0416V51.2934H83.4293V54.6677C83.4293 55.6609 83.8783 55.9602 84.8307 55.9602C85.3477 55.9602 85.8375 55.8378 86.2729 55.6609V56.6677C85.7831 56.8446 85.1436 56.967 84.5178 56.967C83.2524 56.967 82.3544 56.2868 82.3544 54.8581V51.2934H81.1299V50.2866H82.3544V48.2593ZM87.3227 53.552C87.3227 51.3206 89.037 50.1233 90.8058 50.1233C92.5882 50.1233 94.2889 51.3206 94.2889 53.552C94.2889 55.7833 92.5882 56.9807 90.8058 56.9807C89.037 56.9807 87.3227 55.7833 87.3227 53.552ZM93.2004 53.552C93.2004 52.0417 92.1392 51.1574 90.8058 51.1574C89.4724 51.1574 88.4112 52.0417 88.4112 53.552C88.4112 55.0622 89.4724 55.9466 90.8058 55.9466C92.1392 55.9466 93.2004 55.0622 93.2004 53.552ZM99.9522 48.2593L101.027 47.9872V50.2866H103.639V51.2934H101.027V54.6677C101.027 55.6609 101.476 55.9602 102.428 55.9602C102.946 55.9602 103.435 55.8378 103.871 55.6609V56.6677C103.381 56.8446 102.741 56.967 102.116 56.967C100.85 56.967 99.9522 56.2868 99.9522 54.8581V51.2934H98.7277V50.2866H99.9522V48.2593ZM105.369 47.2933H106.458V51.1165C106.921 50.5995 107.737 50.1233 108.703 50.1233C110.268 50.1233 111.424 51.1982 111.424 52.7901V56.8174H110.336V52.9261C110.336 51.7016 109.587 51.1301 108.58 51.1301C107.614 51.1301 106.893 51.7832 106.458 52.4363V56.8174H105.369V47.2933ZM113.178 53.552C113.178 51.2662 114.879 50.1233 116.43 50.1233C118.947 50.1233 119.872 52.1778 119.464 54.0282H114.267C114.403 55.4024 115.641 55.9738 116.96 55.9738C117.763 55.9738 118.552 55.7561 119.11 55.4432V56.5044C118.512 56.8174 117.654 56.9807 116.797 56.9807C114.865 56.9807 113.178 55.8786 113.178 53.552ZM118.498 53.0758C118.593 52.3819 118.158 51.1301 116.498 51.1301C115.382 51.1301 114.348 51.7968 114.267 53.0758H118.498ZM133.171 50.2866H134.314L132.082 56.8174H130.898L129.13 51.7696L127.361 56.8174H126.177L123.946 50.2866H125.089L126.776 55.6201L128.64 50.2866H129.62L131.484 55.6201L133.171 50.2866ZM135.254 53.552C135.254 51.3206 136.968 50.1233 138.737 50.1233C140.519 50.1233 142.22 51.3206 142.22 53.552C142.22 55.7833 140.519 56.9807 138.737 56.9807C136.968 56.9807 135.254 55.7833 135.254 53.552ZM141.131 53.552C141.131 52.0417 140.07 51.1574 138.737 51.1574C137.403 51.1574 136.342 52.0417 136.342 53.552C136.342 55.0622 137.403 55.9466 138.737 55.9466C140.07 55.9466 141.131 55.0622 141.131 53.552ZM145.033 51.4431C145.55 50.5859 146.706 50.0553 147.849 50.1505V51.239C146.57 51.0893 145.536 51.7016 145.142 52.7492V56.8174H144.053V50.2866H145.033V51.4431ZM149.335 46.8851H150.424V56.8174H149.335V46.8851ZM158.089 47.2933H159.178V56.8174H158.198V55.7289C157.613 56.3956 156.81 56.9807 155.559 56.9807C153.695 56.9807 152.293 55.5112 152.293 53.552C152.293 51.5927 153.695 50.1233 155.559 50.1233C156.81 50.1233 157.613 50.7084 158.089 51.2662V47.2933ZM158.089 52.7356C157.722 51.8921 156.851 51.1301 155.681 51.1301C154.416 51.1301 153.382 52.0553 153.382 53.552C153.382 55.0486 154.416 55.9738 155.681 55.9738C156.851 55.9738 157.722 55.2119 158.089 54.3683V52.7356ZM164.676 53.552C164.676 51.3206 166.39 50.1233 168.159 50.1233C169.942 50.1233 171.642 51.3206 171.642 53.552C171.642 55.7833 169.942 56.9807 168.159 56.9807C166.39 56.9807 164.676 55.7833 164.676 53.552ZM170.554 53.552C170.554 52.0417 169.493 51.1574 168.159 51.1574C166.826 51.1574 165.765 52.0417 165.765 53.552C165.765 55.0622 166.826 55.9466 168.159 55.9466C169.493 55.9466 170.554 55.0622 170.554 53.552ZM174.948 56.8174H173.86V51.2934H172.635V50.2866H173.86V49.4974C173.86 47.6743 175.03 47.13 176.173 47.13C176.771 47.13 177.356 47.2525 177.805 47.4294V48.4362C177.438 48.2593 176.921 48.1369 176.431 48.1369C175.642 48.1369 174.948 48.3409 174.948 49.5383V50.2866H177.397V51.2934H174.948V56.8174ZM183.24 56.8174H182.152V50.2866H183.131V51.1574C183.485 50.7764 184.26 50.1233 185.363 50.1233C186.342 50.1233 187.063 50.5451 187.458 51.2254C188.043 50.6267 188.846 50.1233 189.839 50.1233C191.458 50.1233 192.329 51.2662 192.329 52.7901V56.8174H191.24V52.7628C191.24 51.7696 190.669 51.1301 189.716 51.1301C188.832 51.1301 188.179 51.7424 187.812 52.205C187.839 52.3955 187.852 52.586 187.852 52.7901V56.8174H186.764V52.7628C186.764 51.7696 186.193 51.1301 185.24 51.1301C184.274 51.1301 183.594 51.8513 183.24 52.3138V56.8174ZM194.079 53.552C194.079 51.3206 195.793 50.1233 197.562 50.1233C199.345 50.1233 201.045 51.3206 201.045 53.552C201.045 55.7833 199.345 56.9807 197.562 56.9807C195.793 56.9807 194.079 55.7833 194.079 53.552ZM199.957 53.552C199.957 52.0417 198.896 51.1574 197.562 51.1574C196.229 51.1574 195.168 52.0417 195.168 53.552C195.168 55.0622 196.229 55.9466 197.562 55.9466C198.896 55.9466 199.957 55.0622 199.957 53.552ZM202.879 47.2933H203.967V51.2662C204.443 50.7084 205.246 50.1233 206.498 50.1233C208.362 50.1233 209.763 51.5927 209.763 53.552C209.763 55.5112 208.362 56.9807 206.498 56.9807C205.246 56.9807 204.443 56.3956 203.858 55.7289V56.8174H202.879V47.2933ZM208.675 53.552C208.675 52.0553 207.641 51.1301 206.375 51.1301C205.205 51.1301 204.335 51.8921 203.967 52.7356V54.3683C204.335 55.2119 205.205 55.9738 206.375 55.9738C207.641 55.9738 208.675 55.0486 208.675 53.552ZM212.717 56.8174H211.629V50.2866H212.717V56.8174ZM212.88 48.2049C212.88 48.6675 212.554 48.8988 212.173 48.8988C211.792 48.8988 211.465 48.6675 211.465 48.2049C211.465 47.7559 211.792 47.511 212.173 47.511C212.554 47.511 212.88 47.7559 212.88 48.2049ZM215.063 46.8851H216.151V56.8174H215.063V46.8851ZM218.021 53.552C218.021 51.2662 219.722 50.1233 221.273 50.1233C223.79 50.1233 224.715 52.1778 224.307 54.0282H219.11C219.246 55.4024 220.484 55.9738 221.804 55.9738C222.606 55.9738 223.395 55.7561 223.953 55.4432V56.5044C223.355 56.8174 222.497 56.9807 221.64 56.9807C219.708 56.9807 218.021 55.8786 218.021 53.552ZM223.341 53.0758C223.436 52.3819 223.001 51.1301 221.341 51.1301C220.225 51.1301 219.191 51.7968 219.11 53.0758H223.341Z" fill="#221E26"/>
<path fill-rule="evenodd" clip-rule="evenodd" d="M193.951 10.6201H181.064V15.5516H193.917C196.473 15.5516 198.545 17.6506 198.545 20.2399C198.545 22.8292 196.473 24.9282 193.917 24.9282H185.961V20.4849H181.066V36.1674H185.961V29.8687H193.97V29.8579C197.362 29.8546 200.493 28.0188 202.186 25.0419C203.879 22.0651 203.876 18.3994 202.177 15.4258C200.479 12.4522 197.344 10.6223 193.953 10.6255L193.951 10.6201Z" fill="#52006B"/>
<path fill-rule="evenodd" clip-rule="evenodd" d="M232.731 20.2429C232.715 14.9979 228.562 10.7283 223.386 10.6349V10.624H210.335V15.5519H223.188C225.743 15.5519 227.815 17.6505 227.815 20.2393C227.815 22.828 225.743 24.9266 223.188 24.9266H215.237V20.4852H210.343V36.1676H215.237V29.869H223.393V29.8491C228.567 29.7527 232.715 25.4848 232.731 20.2429Z" fill="#52006B"/>
<path fill-rule="evenodd" clip-rule="evenodd" d="M69.1424 29.897L67.1164 24.9655H62.6306L66.6898 16.3719L76.0381 36.1667H81.4593L69.3941 10.6339V10.623H63.9658V10.6339L51.9185 36.1667H57.3379L60.3028 29.8915H69.1424V29.897Z" fill="#52006B"/>
<path fill-rule="evenodd" clip-rule="evenodd" d="M119.212 10.623H118.32V36.1667H137.918L139.676 31.237H123.213V25.8588H132.557V20.9327H123.213V15.5509H139.676V10.623H119.212Z" fill="#52006B"/>
<path fill-rule="evenodd" clip-rule="evenodd" d="M105.636 36.1676H111.688L100.146 21.903L110.899 11.0689H104.219L92.9732 22.4039V10.624H88.0786V36.1676H92.9625V29.133L96.8075 25.2594L105.636 36.1676Z" fill="#52006B"/>
<path fill-rule="evenodd" clip-rule="evenodd" d="M162.395 10.623H156.968V10.6339L150.201 24.9673L144.914 36.1667H150.333L153.298 29.8915H161.781L159.755 24.96H155.626L159.685 16.3665L169.033 36.1667H174.454L162.395 10.6339V10.623Z" fill="#52006B"/>
<path fill-rule="evenodd" clip-rule="evenodd" d="M35.5292 36.1354L35.5131 36.1716H40.8915L40.8754 36.1354L53.867 6.81585L56.2518 7.93706L54.3043 0L47.016 3.5969L49.4365 4.73439L38.2032 30.0194L29.7349 10.6298H24.3797L15.9221 30.0194L9.67445 15.6824H4.25146L13.2571 36.1463L13.241 36.1824H18.6194L18.6033 36.1463L27.0716 16.7584L35.5292 36.1354Z" fill="#52006B"/>
</svg>
