<?xml version="1.0" encoding="UTF-8"?>
<!-- Generated by Pixelmator Pro 3.6.18 -->
<svg width="233" height="60" viewBox="0 0 233 60" xmlns="http://www.w3.org/2000/svg">
    <path id="path1" fill="#221e26" stroke="none" d="M 11.8379 55.5793 L 14.0421 50.286598 L 15.1986 50.286598 L 11.9876 57.797001 C 11.3073 59.375301 10.4773 59.9739 9.52494 59.9739 C 9.29364 59.9739 9.06234 59.946701 8.81743 59.8787 L 8.81743 58.939899 C 9.00792 58.994301 9.1984 59.0215 9.38888 59.0215 C 10.1236 59.0215 10.6542 58.490898 11.076 57.4296 L 11.3209 56.831001 L 8.21878 50.286598 L 9.37527 50.286598 L 11.8379 55.5793 Z M 15.9946 53.551998 C 15.9946 51.320599 17.709 50.123299 19.477699 50.123299 C 21.260099 50.123299 22.9608 51.320599 22.9608 53.551998 C 22.9608 55.783298 21.260099 56.980701 19.477699 56.980701 C 17.709 56.980701 15.9946 55.783298 15.9946 53.551998 Z M 21.872299 53.551998 C 21.872299 52.041698 20.8111 51.157398 19.477699 51.157398 C 18.1443 51.157398 17.083099 52.041698 17.083099 53.551998 C 17.083099 55.062199 18.1443 55.946602 19.477699 55.946602 C 20.8111 55.946602 21.872299 55.062199 21.872299 53.551998 Z M 29.678699 50.286598 L 30.7672 50.286598 L 30.7672 56.817402 L 29.7875 56.817402 L 29.7875 55.851398 C 29.3522 56.422798 28.4814 56.980701 27.433701 56.980701 C 25.733 56.980701 24.712601 55.9058 24.712601 54.3139 L 24.712601 50.286598 L 25.801001 50.286598 L 25.801001 54.177799 C 25.801001 55.402401 26.4133 55.973801 27.5562 55.973801 C 28.5222 55.973801 29.243299 55.320702 29.678699 54.667702 L 29.678699 50.286598 Z M 34.031399 51.4431 C 34.548401 50.585899 35.704899 50.055302 36.847801 50.150501 L 36.847801 51.238998 C 35.568901 51.089298 34.534801 51.701599 34.140202 52.749199 L 34.140202 56.817402 L 33.0518 56.817402 L 33.0518 50.286598 L 34.031399 50.286598 L 34.031399 51.4431 Z M 41.2122 53.551998 C 41.2122 51.592701 42.613602 50.123299 44.4776 50.123299 C 45.729301 50.123299 46.532101 50.708401 47.1171 51.375 L 47.1171 50.286598 L 48.096699 50.286598 L 48.096699 56.817402 C 48.096699 59.062302 46.341599 59.9739 44.532001 59.9739 C 43.566002 59.9739 42.6544 59.756199 41.878899 59.361698 L 41.878899 58.3004 C 42.6544 58.735802 43.498001 58.967098 44.396 58.967098 C 45.783798 58.967098 47.0219 58.436501 47.008301 56.817402 L 47.008301 55.8106 C 46.532101 56.395599 45.729301 56.980701 44.4776 56.980701 C 42.613602 56.980701 41.2122 55.5112 41.2122 53.551998 Z M 47.008301 52.7356 C 46.6409 51.892101 45.770199 51.1301 44.599998 51.1301 C 43.334702 51.1301 42.300701 52.055302 42.300701 53.551998 C 42.300701 55.048599 43.334702 55.973801 44.599998 55.973801 C 45.770199 55.973801 46.6409 55.2663 47.008301 54.504398 L 47.008301 52.7356 Z M 55.268299 50.286598 L 56.3568 50.286598 L 56.3568 56.817402 L 55.377102 56.817402 L 55.377102 55.851398 C 54.941799 56.422798 54.070999 56.980701 53.0233 56.980701 C 51.322601 56.980701 50.3022 55.9058 50.3022 54.3139 L 50.3022 50.286598 L 51.390598 50.286598 L 51.390598 54.177799 C 51.390598 55.402401 52.002899 55.973801 53.145802 55.973801 C 54.111801 55.973801 54.832901 55.320702 55.268299 54.667702 L 55.268299 50.286598 Z M 59.757099 56.817402 L 58.668598 56.817402 L 58.668598 50.286598 L 59.757099 50.286598 L 59.757099 56.817402 Z M 59.9203 48.204899 C 59.9203 48.6675 59.5938 48.8988 59.212799 48.8988 C 58.831902 48.8988 58.505299 48.6675 58.505299 48.204899 C 58.505299 47.755901 58.831902 47.511002 59.212799 47.511002 C 59.5938 47.511002 59.9203 47.755901 59.9203 48.204899 Z M 67.422897 47.293301 L 68.511398 47.293301 L 68.511398 56.817402 L 67.5317 56.817402 L 67.5317 55.728901 C 66.946701 56.395599 66.143898 56.980701 64.892197 56.980701 C 63.028198 56.980701 61.626801 55.5112 61.626801 53.551998 C 61.626801 51.592701 63.028198 50.123299 64.892197 50.123299 C 66.143898 50.123299 66.946701 50.708401 67.422897 51.266201 L 67.422897 47.293301 Z M 67.422897 52.7356 C 67.055496 51.892101 66.184799 51.1301 65.014702 51.1301 C 63.749298 51.1301 62.715302 52.055302 62.715302 53.551998 C 62.715302 55.048599 63.749298 55.973801 65.014702 55.973801 C 66.184799 55.973801 67.055496 55.211899 67.422897 54.368301 L 67.422897 52.7356 Z M 70.349403 53.551998 C 70.349403 51.266201 72.050102 50.123299 73.601196 50.123299 C 76.118301 50.123299 77.043503 52.177799 76.6353 54.028198 L 71.437897 54.028198 C 71.573898 55.402401 72.812103 55.973801 74.131798 55.973801 C 74.934601 55.973801 75.723701 55.7561 76.281601 55.443199 L 76.281601 56.504398 C 75.682899 56.817402 74.825699 56.980701 73.968597 56.980701 C 72.036499 56.980701 70.349403 55.878601 70.349403 53.551998 Z M 75.669296 53.075802 C 75.764503 52.381901 75.329201 51.1301 73.669197 51.1301 C 72.553596 51.1301 71.519501 51.796799 71.437897 53.075802 L 75.669296 53.075802 Z M 82.354401 48.2593 L 83.429298 47.987202 L 83.429298 50.286598 L 86.041603 50.286598 L 86.041603 51.2934 L 83.429298 51.2934 L 83.429298 54.667702 C 83.429298 55.6609 83.878304 55.960201 84.830704 55.960201 C 85.347702 55.960201 85.837502 55.837799 86.272903 55.6609 L 86.272903 56.667702 C 85.783096 56.844601 85.1436 56.966999 84.517799 56.966999 C 83.252403 56.966999 82.354401 56.2868 82.354401 54.858101 L 82.354401 51.2934 L 81.129898 51.2934 L 81.129898 50.286598 L 82.354401 50.286598 L 82.354401 48.2593 Z M 87.322701 53.551998 C 87.322701 51.320599 89.037003 50.123299 90.805801 50.123299 C 92.588203 50.123299 94.288902 51.320599 94.288902 53.551998 C 94.288902 55.783298 92.588203 56.980701 90.805801 56.980701 C 89.037003 56.980701 87.322701 55.783298 87.322701 53.551998 Z M 93.200401 53.551998 C 93.200401 52.041698 92.139198 51.157398 90.805801 51.157398 C 89.472397 51.157398 88.411201 52.041698 88.411201 53.551998 C 88.411201 55.062199 89.472397 55.946602 90.805801 55.946602 C 92.139198 55.946602 93.200401 55.062199 93.200401 53.551998 Z M 99.952202 48.2593 L 101.027 47.987202 L 101.027 50.286598 L 103.639 50.286598 L 103.639 51.2934 L 101.027 51.2934 L 101.027 54.667702 C 101.027 55.6609 101.475998 55.960201 102.428001 55.960201 C 102.945999 55.960201 103.434998 55.837799 103.871002 55.6609 L 103.871002 56.667702 C 103.380997 56.844601 102.740997 56.966999 102.115997 56.966999 C 100.849998 56.966999 99.952202 56.2868 99.952202 54.858101 L 99.952202 51.2934 L 98.727699 51.2934 L 98.727699 50.286598 L 99.952202 50.286598 L 99.952202 48.2593 Z M 105.369003 47.293301 L 106.458 47.293301 L 106.458 51.116501 C 106.920998 50.599499 107.737 50.123299 108.703003 50.123299 C 110.267998 50.123299 111.424004 51.1982 111.424004 52.7901 L 111.424004 56.817402 L 110.335999 56.817402 L 110.335999 52.926102 C 110.335999 51.701599 109.586998 51.1301 108.580002 51.1301 C 107.613998 51.1301 106.892998 51.783199 106.458 52.436298 L 106.458 56.817402 L 105.369003 56.817402 L 105.369003 47.293301 Z M 113.178001 53.551998 C 113.178001 51.266201 114.878998 50.123299 116.43 50.123299 C 118.946999 50.123299 119.872002 52.177799 119.463997 54.028198 L 114.266998 54.028198 C 114.403 55.402401 115.640999 55.973801 116.959999 55.973801 C 117.763 55.973801 118.552002 55.7561 119.110001 55.443199 L 119.110001 56.504398 C 118.512001 56.817402 117.653999 56.980701 116.796997 56.980701 C 114.864998 56.980701 113.178001 55.878601 113.178001 53.551998 Z M 118.498001 53.075802 C 118.593002 52.381901 118.157997 51.1301 116.498001 51.1301 C 115.382004 51.1301 114.348 51.796799 114.266998 53.075802 L 118.498001 53.075802 Z M 133.171005 50.286598 L 134.313995 50.286598 L 132.082001 56.817402 L 130.897995 56.817402 L 129.130005 51.7696 L 127.361 56.817402 L 126.177002 56.817402 L 123.945999 50.286598 L 125.088997 50.286598 L 126.776001 55.620098 L 128.639999 50.286598 L 129.619995 50.286598 L 131.483994 55.620098 L 133.171005 50.286598 Z M 135.253998 53.551998 C 135.253998 51.320599 136.968002 50.123299 138.737 50.123299 C 140.518997 50.123299 142.220001 51.320599 142.220001 53.551998 C 142.220001 55.783298 140.518997 56.980701 138.737 56.980701 C 136.968002 56.980701 135.253998 55.783298 135.253998 53.551998 Z M 141.130997 53.551998 C 141.130997 52.041698 140.070007 51.157398 138.737 51.157398 C 137.403 51.157398 136.341995 52.041698 136.341995 53.551998 C 136.341995 55.062199 137.403 55.946602 138.737 55.946602 C 140.070007 55.946602 141.130997 55.062199 141.130997 53.551998 Z M 145.033005 51.4431 C 145.550003 50.585899 146.705994 50.055302 147.848999 50.150501 L 147.848999 51.238998 C 146.570007 51.089298 145.535995 51.701599 145.141998 52.749199 L 145.141998 56.817402 L 144.052994 56.817402 L 144.052994 50.286598 L 145.033005 50.286598 L 145.033005 51.4431 Z M 149.335007 46.885101 L 150.423996 46.885101 L 150.423996 56.817402 L 149.335007 56.817402 L 149.335007 46.885101 Z M 158.089005 47.293301 L 159.177994 47.293301 L 159.177994 56.817402 L 158.197998 56.817402 L 158.197998 55.728901 C 157.613007 56.395599 156.809998 56.980701 155.559006 56.980701 C 153.695007 56.980701 152.292999 55.5112 152.292999 53.551998 C 152.292999 51.592701 153.695007 50.123299 155.559006 50.123299 C 156.809998 50.123299 157.613007 50.708401 158.089005 51.266201 L 158.089005 47.293301 Z M 158.089005 52.7356 C 157.722 51.892101 156.850998 51.1301 155.681 51.1301 C 154.416 51.1301 153.382004 52.055302 153.382004 53.551998 C 153.382004 55.048599 154.416 55.973801 155.681 55.973801 C 156.850998 55.973801 157.722 55.211899 158.089005 54.368301 L 158.089005 52.7356 Z M 164.675995 53.551998 C 164.675995 51.320599 166.389999 50.123299 168.158997 50.123299 C 169.942001 50.123299 171.641998 51.320599 171.641998 53.551998 C 171.641998 55.783298 169.942001 56.980701 168.158997 56.980701 C 166.389999 56.980701 164.675995 55.783298 164.675995 53.551998 Z M 170.554001 53.551998 C 170.554001 52.041698 169.492996 51.157398 168.158997 51.157398 C 166.826004 51.157398 165.764999 52.041698 165.764999 53.551998 C 165.764999 55.062199 166.826004 55.946602 168.158997 55.946602 C 169.492996 55.946602 170.554001 55.062199 170.554001 53.551998 Z M 174.947998 56.817402 L 173.860001 56.817402 L 173.860001 51.2934 L 172.634995 51.2934 L 172.634995 50.286598 L 173.860001 50.286598 L 173.860001 49.497398 C 173.860001 47.674301 175.029999 47.130001 176.173004 47.130001 C 176.770996 47.130001 177.356003 47.252499 177.804993 47.429401 L 177.804993 48.436199 C 177.438004 48.2593 176.921005 48.136902 176.431 48.136902 C 175.641998 48.136902 174.947998 48.3409 174.947998 49.5383 L 174.947998 50.286598 L 177.397003 50.286598 L 177.397003 51.2934 L 174.947998 51.2934 L 174.947998 56.817402 Z M 183.240005 56.817402 L 182.151993 56.817402 L 182.151993 50.286598 L 183.130997 50.286598 L 183.130997 51.157398 C 183.485001 50.776402 184.259995 50.123299 185.363007 50.123299 C 186.341995 50.123299 187.063004 50.545101 187.457993 51.225399 C 188.042999 50.626701 188.845993 50.123299 189.839005 50.123299 C 191.457993 50.123299 192.328995 51.266201 192.328995 52.7901 L 192.328995 56.817402 L 191.240005 56.817402 L 191.240005 52.762798 C 191.240005 51.7696 190.669006 51.1301 189.716003 51.1301 C 188.832001 51.1301 188.179001 51.742401 187.811996 52.205002 C 187.839005 52.3955 187.852005 52.585999 187.852005 52.7901 L 187.852005 56.817402 L 186.764008 56.817402 L 186.764008 52.762798 C 186.764008 51.7696 186.192993 51.1301 185.240005 51.1301 C 184.274002 51.1301 183.593994 51.851299 183.240005 52.313801 L 183.240005 56.817402 Z M 194.078995 53.551998 C 194.078995 51.320599 195.792999 50.123299 197.561996 50.123299 C 199.345001 50.123299 201.044998 51.320599 201.044998 53.551998 C 201.044998 55.783298 199.345001 56.980701 197.561996 56.980701 C 195.792999 56.980701 194.078995 55.783298 194.078995 53.551998 Z M 199.957001 53.551998 C 199.957001 52.041698 198.895996 51.157398 197.561996 51.157398 C 196.229004 51.157398 195.167999 52.041698 195.167999 53.551998 C 195.167999 55.062199 196.229004 55.946602 197.561996 55.946602 C 198.895996 55.946602 199.957001 55.062199 199.957001 53.551998 Z M 202.878998 47.293301 L 203.966995 47.293301 L 203.966995 51.266201 C 204.442993 50.708401 205.246002 50.123299 206.498001 50.123299 C 208.362 50.123299 209.763 51.592701 209.763 53.551998 C 209.763 55.5112 208.362 56.980701 206.498001 56.980701 C 205.246002 56.980701 204.442993 56.395599 203.858002 55.728901 L 203.858002 56.817402 L 202.878998 56.817402 L 202.878998 47.293301 Z M 208.675003 53.551998 C 208.675003 52.055302 207.641006 51.1301 206.375 51.1301 C 205.205002 51.1301 204.335007 51.892101 203.966995 52.7356 L 203.966995 54.368301 C 204.335007 55.211899 205.205002 55.973801 206.375 55.973801 C 207.641006 55.973801 208.675003 55.048599 208.675003 53.551998 Z M 212.716995 56.817402 L 211.628998 56.817402 L 211.628998 50.286598 L 212.716995 50.286598 L 212.716995 56.817402 Z M 212.880005 48.204899 C 212.880005 48.6675 212.554001 48.8988 212.173004 48.8988 C 211.792007 48.8988 211.464996 48.6675 211.464996 48.204899 C 211.464996 47.755901 211.792007 47.511002 212.173004 47.511002 C 212.554001 47.511002 212.880005 47.755901 212.880005 48.204899 Z M 215.063004 46.885101 L 216.151001 46.885101 L 216.151001 56.817402 L 215.063004 56.817402 L 215.063004 46.885101 Z M 218.020996 53.551998 C 218.020996 51.266201 219.722 50.123299 221.272995 50.123299 C 223.789993 50.123299 224.714996 52.177799 224.307007 54.028198 L 219.110001 54.028198 C 219.246002 55.402401 220.483994 55.973801 221.804001 55.973801 C 222.606003 55.973801 223.395004 55.7561 223.953003 55.443199 L 223.953003 56.504398 C 223.354996 56.817402 222.496994 56.980701 221.639999 56.980701 C 219.707993 56.980701 218.020996 55.878601 218.020996 53.551998 Z M 223.341003 53.075802 C 223.436005 52.381901 223.001007 51.1301 221.341003 51.1301 C 220.225006 51.1301 219.190994 51.796799 219.110001 53.075802 L 223.341003 53.075802 Z"/>
    <text id="Kinetic-Agency" xml:space="preserve" x="30.976" y="36" font-family="Kefa III" font-size="27" fill="#52006b">Kinetic Agency</text>
</svg>
