<svg width="170" height="32" viewBox="0 0 170 32" fill="none" xmlns="http://www.w3.org/2000/svg">
<path d="M64.8433 9.125H58.8828V28.0488H64.8433V9.125Z" fill="#FF5252"/>
<path d="M61.864 0.00195312C59.9521 0.00195312 58.3242 1.42476 58.3242 3.27244C58.3242 5.12011 59.9521 6.54292 61.864 6.54292C63.7759 6.54292 65.4037 5.12011 65.4037 3.27244C65.4037 1.42476 63.7759 0.00195312 61.864 0.00195312Z" fill="#FF5252"/>
<path d="M45.5451 8.66391C43.4999 8.66391 41.7782 9.19006 40.4245 10.1584V0.243164H34.6172V17.5145C34.6172 24.4531 39.3945 28.5042 45.0857 28.5042C50.7769 28.5042 55.7864 24.5766 55.7864 18.584C55.7864 12.5939 51.0314 8.66391 45.5451 8.66391ZM45.2759 23.4675C42.5736 23.4675 40.385 21.2815 40.385 18.584C40.385 15.8866 42.576 13.7006 45.2759 13.7006C47.9758 13.7006 50.1668 15.8866 50.1668 18.584C50.1693 21.2815 47.9782 23.4675 45.2759 23.4675Z" fill="#FF5252"/>
<path d="M101.454 8.66504C95.9676 8.66504 90.9062 12.5926 90.9062 18.5852C90.9062 24.5778 95.9651 28.5053 101.454 28.5053C106.94 28.5053 112.001 24.5778 112.001 18.5852C112.001 12.5951 106.94 8.66504 101.454 8.66504ZM101.454 23.4687C98.7515 23.4687 96.5629 21.2826 96.5629 18.5852C96.5629 15.8878 98.7539 13.7017 101.454 13.7017C104.156 13.7017 106.345 15.8878 106.345 18.5852C106.345 21.2826 104.156 23.4687 101.454 23.4687Z" fill="#FF5252"/>
<path d="M78.6006 8.66504C72.5857 8.66504 68.7422 12.5926 68.7422 18.5852V28.0483H74.7027V19.0446C74.7027 15.8655 75.9402 14.008 78.6006 14.008C81.2609 14.008 82.4985 15.8655 82.4985 19.0446V28.0483H88.4589V18.5852C88.4589 12.5951 84.6154 8.66504 78.6006 8.66504Z" fill="#FF5252"/>
<path d="M159.454 8.66504C153.968 8.66504 148.906 12.5926 148.906 18.5852C148.906 24.5778 153.965 28.5053 159.454 28.5053C164.94 28.5053 170.001 24.5778 170.001 18.5852C170.001 12.5951 164.942 8.66504 159.454 8.66504ZM159.454 23.4687C156.751 23.4687 154.563 21.2826 154.563 18.5852C154.563 15.8878 156.754 13.7017 159.454 13.7017C162.156 13.7017 164.345 15.8878 164.345 18.5852C164.345 21.2826 162.156 23.4687 159.454 23.4687Z" fill="#FF5252"/>
<path d="M136.95 8.66504C134.183 8.66504 131.962 9.66298 130.453 11.444C128.946 9.66298 126.726 8.66504 123.956 8.66504C118.567 8.66504 114.479 12.4419 114.479 18.432V28.0459H120.439V18.432C120.439 15.5568 121.637 14.0055 123.954 14.0055C126.271 14.0055 127.469 15.5543 127.469 18.432V28.0459H133.43V18.432C133.43 15.5568 134.628 14.0055 136.945 14.0055C139.262 14.0055 140.46 15.5543 140.46 18.432V28.0459H146.42V18.432C146.425 12.4419 142.339 8.66504 136.95 8.66504Z" fill="#FF5252"/>
<path d="M7.79799 18.0037L14.586 6.25807C15.7395 4.26219 15.0553 1.71052 13.0569 0.559431C11.0586 -0.59166 8.50198 0.0901005 7.34842 2.08598L0.56044 13.8316C-0.593121 15.8274 0.0911118 18.3766 2.08947 19.5302C4.08782 20.6838 6.64443 19.9995 7.79799 18.0037Z" fill="#FF5252"/>
<path d="M19.848 12.3006C17.8496 11.1495 15.293 11.8313 14.1394 13.8272L7.35146 25.5728C6.19789 27.5687 6.88213 30.1179 8.88048 31.2714C10.8788 32.425 13.4354 31.7407 14.589 29.7449L21.377 17.9993C22.5305 16.0034 21.8463 13.4517 19.848 12.3006Z" fill="#FF5252"/>
</svg>
